<?xml version="1.0" standalone="no"?>
<!DOCTYPE svg PUBLIC "-//W3C//DTD SVG 20010904//EN"
 "http://www.w3.org/TR/2001/REC-SVG-20010904/DTD/svg10.dtd">
<svg version="1.0" xmlns="http://www.w3.org/2000/svg"
 width="16.000000pt" height="16.000000pt" viewBox="0 0 16.000000 16.000000"
 preserveAspectRatio="xMidYMid meet">

<g transform="translate(0.000000,16.000000) scale(0.100000,-0.100000)"
fill="#000000" stroke="none">
<path d="M4 147 c-3 -8 -4 -43 -2 -78 l3 -64 75 0 75 0 0 75 0 75 -73 3 c-55
2 -74 -1 -78 -11z m106 -27 c0 -5 -11 -10 -25 -10 -31 0 -33 -20 -2 -21 l22 0
-22 -9 c-31 -12 -29 -30 2 -30 14 0 25 -4 25 -10 0 -5 -13 -10 -30 -10 -29 0
-30 1 -30 50 0 49 1 50 30 50 17 0 30 -4 30 -10z"/>
</g>
</svg>
