<?xml version="1.0" standalone="no"?>
<!DOCTYPE svg PUBLIC "-//W3C//DTD SVG 20010904//EN"
 "http://www.w3.org/TR/2001/REC-SVG-20010904/DTD/svg10.dtd">
<svg version="1.0" xmlns="http://www.w3.org/2000/svg"
 width="500pt" height="400pt" viewBox="0 0 500 400"
 preserveAspectRatio="xMidYMid meet">

<g transform="translate(0.000000,400.000000) scale(0.100000,-0.100000)"
fill="#000000" stroke="none">
<path d="M3040 3931 c0 -5 -12 -23 -26 -40 l-25 -30 -57 26 c-31 14 -65 30
-76 35 -13 7 -24 4 -40 -11 -12 -12 -29 -21 -38 -21 -8 0 -26 -8 -39 -19 -13
-10 -37 -22 -53 -28 -16 -5 -33 -17 -38 -26 -4 -9 -12 -25 -16 -34 -5 -9 -25
-22 -45 -29 -20 -7 -52 -20 -71 -29 -33 -16 -37 -16 -63 2 -61 42 -163 52
-163 17 0 -8 -7 -17 -15 -20 -10 -4 -13 -14 -9 -29 6 -26 -20 -41 -50 -29 -23
9 -21 -19 4 -41 11 -10 20 -22 20 -27 0 -13 -33 -9 -54 7 -19 15 -87 21 -99 9
-3 -3 9 -26 26 -50 l31 -44 -21 -19 c-12 -11 -23 -25 -25 -32 -3 -8 -26 3 -63
28 -61 41 -129 61 -154 44 -11 -7 -10 -14 8 -39 27 -39 28 -66 1 -57 -11 4
-20 2 -20 -4 0 -18 -22 -13 -47 10 -18 18 -25 20 -38 9 -8 -7 -15 -18 -15 -25
0 -7 -11 -20 -25 -29 -20 -13 -24 -22 -19 -41 9 -36 -4 -31 -71 24 l-59 49
-28 -19 -27 -20 -63 58 c-35 31 -91 85 -124 119 -34 34 -77 73 -97 86 -19 12
-68 47 -110 76 -87 59 -108 65 -76 21 15 -21 18 -34 11 -41 -10 -10 -26 -7
-83 17 -24 9 -50 -21 -43 -50 4 -18 1 -25 -17 -30 l-23 -8 27 -23 c35 -30 38
-69 5 -59 -13 4 -27 11 -32 16 -6 5 -17 9 -25 9 -11 0 -10 -4 5 -21 15 -17 16
-22 4 -29 -12 -7 -6 -19 33 -57 45 -47 55 -72 41 -107 -3 -9 -17 -16 -30 -16
-13 0 -33 -5 -44 -12 -15 -10 -26 -9 -55 5 -49 23 -55 22 -55 -13 0 -25 -4
-30 -24 -30 -18 0 -25 -7 -29 -27 -3 -15 -1 -35 3 -44 11 -19 -6 -39 -32 -39
-16 0 -16 -2 0 -29 21 -37 15 -43 -28 -31 -27 8 -35 6 -46 -8 -17 -23 -7 -38
81 -127 76 -76 91 -102 56 -92 -12 3 -22 -1 -25 -9 -3 -8 -17 -14 -31 -14 -36
0 -42 -26 -14 -56 24 -26 19 -39 -16 -46 -11 -2 -21 -12 -23 -23 -2 -11 -14
-31 -26 -45 -12 -14 -27 -37 -34 -52 -6 -15 -25 -34 -41 -43 -17 -8 -33 -26
-37 -39 -3 -14 -12 -27 -20 -30 -8 -3 -14 -16 -14 -29 0 -26 15 -48 79 -115
43 -45 53 -73 23 -65 -24 6 -237 -13 -253 -23 -8 -5 7 -14 41 -25 30 -10 58
-15 62 -13 4 3 8 -4 8 -16 0 -24 -38 -42 -92 -42 -24 -1 -35 -5 -32 -13 3 -6
-2 -18 -11 -25 -12 -10 -13 -15 -4 -21 10 -6 10 -11 1 -22 -11 -12 -5 -17 33
-28 50 -15 49 -20 -12 -39 -68 -21 -60 -36 19 -35 56 1 73 -3 90 -19 l22 -20
-55 -11 c-30 -6 -61 -15 -67 -19 -23 -14 -12 -26 26 -26 57 0 73 -16 23 -25
-51 -8 -53 -19 -5 -23 20 -1 41 -5 48 -9 6 -5 34 -9 63 -9 64 -2 107 -31 109
-74 1 -24 -5 -32 -32 -45 -25 -12 -34 -23 -34 -40 0 -25 -7 -29 -71 -39 -40
-7 -74 -36 -51 -43 6 -3 12 -11 12 -19 0 -8 5 -14 10 -14 6 0 10 -7 10 -15 0
-9 -9 -15 -25 -15 -16 0 -25 -6 -25 -15 0 -8 5 -15 10 -15 6 0 10 -7 10 -15 0
-8 5 -15 11 -15 8 0 7 -5 -2 -16 -10 -13 -10 -17 2 -25 8 -5 24 -9 37 -9 34 0
26 -27 -15 -49 -13 -6 -23 -19 -23 -27 0 -8 5 -12 11 -8 6 3 21 2 32 -4 12 -6
30 -13 40 -16 25 -8 16 -32 -11 -28 -11 2 -23 -2 -27 -8 -3 -5 -19 -10 -36
-10 -31 0 -39 -14 -13 -24 14 -5 14 -9 3 -22 -15 -18 -2 -30 41 -40 14 -3 41
-10 60 -15 38 -11 53 -14 173 -25 77 -7 97 -22 46 -34 -17 -5 -23 -12 -21 -27
2 -12 -8 -32 -23 -47 -36 -36 -29 -59 20 -71 67 -17 86 -39 42 -50 -19 -5 -23
-12 -19 -34 2 -18 13 -33 29 -40 13 -6 21 -16 18 -22 -5 -7 -11 -6 -21 2 -12
9 -14 6 -14 -20 0 -17 -5 -31 -12 -31 -6 0 -4 -7 5 -18 23 -25 22 -99 0 -124
-15 -17 -15 -20 -3 -28 9 -6 10 -10 3 -10 -8 0 -8 -9 0 -35 9 -30 8 -37 -8
-48 -16 -13 -15 -16 21 -45 21 -18 48 -32 60 -32 12 0 27 -6 34 -14 6 -8 18
-12 26 -9 19 7 133 -17 140 -29 3 -5 26 -6 50 -2 29 4 49 2 59 -6 8 -7 27 -10
42 -7 15 3 38 0 52 -6 40 -16 53 -19 93 -19 25 1 42 -5 50 -17 12 -16 60 -32
113 -37 48 -4 182 -84 172 -101 -8 -12 39 -39 81 -46 17 -4 44 -2 60 4 38 15
115 19 129 7 9 -7 13 -7 13 1 0 8 5 9 19 1 11 -5 48 -13 83 -16 34 -3 68 -10
75 -16 7 -6 28 -7 49 -4 20 4 41 3 48 -3 17 -14 127 -42 138 -35 5 3 25 -2 44
-11 20 -9 42 -14 49 -11 8 3 17 1 20 -4 10 -16 33 -11 38 8 4 16 5 16 6 0 0
-10 4 -18 9 -19 4 0 27 -2 52 -3 35 -2 46 -6 48 -21 3 -13 6 -15 12 -5 4 7 13
9 20 5 9 -6 9 -10 -1 -17 -10 -7 -6 -8 13 -5 26 4 45 -14 33 -33 -3 -4 6 -7
19 -6 29 1 55 46 26 46 -10 0 -24 14 -33 33 -9 17 -25 38 -36 45 -22 13 -28
37 -12 47 5 3 16 -2 24 -10 24 -23 50 -18 68 13 9 16 22 29 30 30 183 14 198
14 235 1 22 -7 87 -14 149 -14 152 -2 476 -36 495 -51 9 -7 21 -10 28 -5 7 4
53 8 104 10 50 1 114 7 142 12 51 10 60 11 169 24 31 3 57 8 57 9 0 2 -7 20
-15 39 -8 20 -15 52 -15 72 0 32 2 35 29 35 16 0 36 6 43 14 8 7 26 12 41 10
15 -1 27 2 27 7 0 5 -6 9 -12 9 -7 0 0 7 16 15 17 9 38 12 55 8 22 -5 24 -4
14 9 -7 8 -10 18 -7 21 4 4 0 17 -8 29 -18 27 -13 48 11 48 9 0 22 5 29 12 13
13 17 32 5 25 -5 -3 -8 6 -8 19 0 13 3 24 8 24 4 0 7 7 7 15 0 8 3 15 8 15 13
0 17 82 6 136 -4 24 2 48 25 97 17 36 31 74 31 85 0 16 9 21 48 27 26 4 74 23
109 44 58 35 61 38 46 54 -14 14 -15 17 -3 18 8 1 18 1 23 0 4 0 7 4 7 10 0 5
5 7 10 4 6 -3 10 -2 10 4 0 5 -9 13 -21 16 -21 7 -21 16 -4 59 7 15 5 17 -12
12 -12 -4 -25 -1 -32 8 -10 12 -8 19 8 35 12 12 30 21 41 21 11 0 20 5 20 10
0 6 -7 10 -16 10 -14 0 -14 3 -4 15 11 14 6 15 -43 13 -93 -4 -88 25 6 38 26
4 47 11 47 17 0 6 8 20 19 31 10 12 22 31 26 44 6 20 3 22 -32 22 -42 1 -111
15 -121 25 -4 4 2 13 12 21 19 13 19 14 1 34 -25 28 -13 36 67 48 37 6 80 17
95 26 15 8 37 19 48 24 26 12 51 41 59 68 6 19 2 22 -36 27 -24 2 -56 10 -73
16 -23 10 -26 14 -15 21 8 6 26 10 40 10 l25 0 -23 18 c-29 22 -20 32 32 32
59 0 69 9 55 50 -7 18 -20 41 -31 52 -21 21 -23 38 -4 38 19 0 28 26 13 39 -7
5 -35 15 -62 22 -28 6 -53 15 -58 18 -4 4 20 58 53 120 33 62 58 117 55 121
-3 5 -18 11 -34 15 -47 10 -56 28 -41 78 29 94 30 117 4 134 -13 8 -24 20 -24
25 0 6 -12 25 -27 43 -16 18 -36 45 -46 59 -10 15 -28 26 -41 26 -26 0 -40 14
-85 89 -32 53 -33 55 -17 88 16 35 22 114 9 127 -5 4 -8 13 -8 19 -1 7 -7 11
-15 9 -8 -2 -20 4 -27 14 -10 14 -15 15 -27 5 -21 -18 -36 -5 -36 30 0 36 -14
37 -36 4 -32 -50 -59 -19 -30 34 10 18 11 32 3 57 -6 19 -13 34 -17 34 -3 0
-21 -16 -40 -35 -36 -37 -60 -45 -60 -20 0 8 -9 15 -20 15 -26 0 -25 16 5 84
27 62 32 113 12 140 -11 16 -15 15 -42 -14 -33 -34 -55 -39 -55 -11 0 11 -6
21 -12 24 -10 3 -8 14 6 41 17 32 18 39 5 47 -7 5 -27 7 -42 4 -23 -4 -30 -1
-34 15 -8 32 -27 24 -92 -36 -40 -37 -66 -54 -77 -50 -10 4 -13 13 -9 25 4 15
1 19 -17 19 -13 0 -32 3 -43 6 -16 6 -34 -7 -84 -58 -35 -36 -67 -66 -72 -66
-4 0 -16 12 -26 26 -10 15 -49 61 -88 104 -57 62 -158 187 -210 259 -24 33
-126 128 -202 187 -78 62 -103 75 -103 55z m1600 -1726 c0 -8 -4 -15 -10 -15
-5 0 -10 7 -10 15 0 8 5 15 10 15 6 0 10 -7 10 -15z m-4165 -605 c3 -5 1 -10
-4 -10 -6 0 -11 5 -11 10 0 6 2 10 4 10 3 0 8 -4 11 -10z m3706 -1243 c-10 -9
-11 -8 -5 6 3 10 9 15 12 12 3 -3 0 -11 -7 -18z m-1554 -248 c3 -17 0 -18 -17
-9 -16 9 -18 13 -8 24 15 16 21 13 25 -15z m-47 0 c0 -6 -4 -7 -10 -4 -5 3
-10 11 -10 16 0 6 5 7 10 4 6 -3 10 -11 10 -16z"/>
</g>
</svg>
